<svg
  width="35"
  height="35"
  viewBox="6 4 35 35"
  fill="none"
  xmlns="http://www.w3.org/2000/svg"
  preserveAspectRatio="xMidYMid meet"
>
  <path d="M32.0555 13.1991C26.8607 8.00421 18.3942 8.00421 13.1994 13.1991C8.00447 18.394 8.00447 26.8604 13.1994 32.0553C18.3942 37.2501 26.8607 37.2501 32.0555 32.0553C37.2504 26.8604 37.2504 18.394 32.0555 13.1991ZM25.6916 27.1055L22.6274 24.0414L19.5633 27.1055C19.1768 27.4921 18.5356 27.4921 18.1491 27.1055C17.7625 26.719 17.7625 26.0779 18.1491 25.6913L21.2132 22.6272L18.1491 19.563C17.7625 19.1765 17.7625 18.5354 18.1491 18.1488C18.5357 17.7623 19.1768 17.7623 19.5633 18.1488L22.6274 21.213L25.6916 18.1488C26.0781 17.7623 26.7192 17.7623 27.1058 18.1488C27.4923 18.5354 27.4923 19.1765 27.1058 19.563L24.0417 22.6272L27.1058 25.6913C27.4923 26.0779 27.4923 26.719 27.1058 27.1055C26.7192 27.4921 26.0781 27.4921 25.6916 27.1055Z" fill="white"/>
</svg>
