<svg width="22" height="22" viewBox="0 0 22 22" fill="none" xmlns="http://www.w3.org/2000/svg">
<path d="M10.9997 1.8335C5.94884 1.8335 1.83301 5.94933 1.83301 11.0002C1.83301 16.051 5.94884 20.1668 10.9997 20.1668C16.0505 20.1668 20.1663 16.051 20.1663 11.0002C20.1663 5.94933 16.0505 1.8335 10.9997 1.8335ZM15.3813 8.89183L10.1838 14.0893C10.0555 14.2177 9.88134 14.291 9.69801 14.291C9.51467 14.291 9.34051 14.2177 9.21217 14.0893L6.61801 11.4952C6.35217 11.2293 6.35217 10.7893 6.61801 10.5235C6.88384 10.2577 7.32384 10.2577 7.58967 10.5235L9.69801 12.6318L14.4097 7.92016C14.6755 7.65433 15.1155 7.65433 15.3813 7.92016C15.6472 8.186 15.6472 8.61683 15.3813 8.89183Z" fill="#0C0117"/>
</svg>
